<?xml version="1.0" standalone="no"?>
<!DOCTYPE svg PUBLIC "-//W3C//DTD SVG 20010904//EN"
 "http://www.w3.org/TR/2001/REC-SVG-20010904/DTD/svg10.dtd">
<svg version="1.0" xmlns="http://www.w3.org/2000/svg"
 width="900.000000pt" height="564.000000pt" viewBox="0 0 900.000000 564.000000"
 preserveAspectRatio="xMidYMid meet">
<metadata>
Created by potrace 1.10, written by Peter Selinger 2001-2011
</metadata>
<g transform="translate(0.000000,564.000000) scale(0.100000,-0.100000)"
fill="#ffffffff" stroke="white">
<path d="M4880 4960 c0 -240 -2 -281 -15 -286 -13 -5 -15 -47 -15 -288 0 -154
-4 -287 -8 -293 -6 -10 -359 -13 -1688 -15 l-1679 -3 2 -1340 c3 -1548 6
-1734 30 -1753 13 -9 242 -12 1065 -12 l1049 0 24 -26 c13 -14 41 -51 62 -82
21 -31 62 -89 91 -129 30 -41 52 -80 50 -90 -3 -17 -43 -18 -823 -20 -757 -3
-821 -4 -832 -20 -18 -23 -18 -294 -1 -311 9 -9 429 -12 1829 -12 1000 0 1824
3 1833 6 14 5 16 29 16 160 l0 154 -26 10 c-16 6 -348 10 -878 10 -469 0 -855
3 -859 6 -7 7 16 55 36 76 7 7 22 27 32 43 56 88 168 225 188 230 12 3 119 4
237 3 l215 -3 5 -145 c3 -80 9 -151 14 -159 7 -11 276 -12 1660 -6 1235 5
1653 10 1658 18 4 7 8 392 7 857 0 636 -3 852 -12 873 -9 20 -11 98 -9 269 3
229 4 240 22 245 19 5 20 15 20 272 0 219 3 271 15 287 21 28 21 600 0 628
-22 29 -22 468 0 510 12 23 15 81 15 322 l0 294 -1665 0 -1665 0 0 -280z
m3278 218 c15 -15 17 -484 3 -493 -12 -7 -3190 -7 -3202 1 -14 8 -12 477 3
492 17 17 3179 17 3196 0z m-35 -560 c16 -12 17 -37 15 -258 l-3 -245 -1600 0
-1600 0 -3 244 c-2 171 1 248 9 257 16 20 3156 21 3182 2z m35 -570 c9 -9 12
-77 12 -244 0 -198 -2 -235 -16 -248 -14 -14 -94 -16 -728 -16 -540 0 -715 3
-724 12 -13 13 -18 489 -5 501 3 4 331 7 728 7 547 0 724 -3 733 -12z m-1527
-8 c19 -11 19 -35 19 -1293 0 -985 -3 -1286 -12 -1295 -17 -17 -5089 -17
-5106 0 -9 9 -12 311 -12 1295 l0 1284 23 9 c33 13 5063 13 5088 0z m822 -550
l687 0 -2 -252 -3 -253 -708 -5 c-390 -3 -715 -1 -723 3 -11 7 -14 51 -14 252
0 222 2 245 18 254 9 6 26 9 37 6 11 -3 329 -5 708 -5z m632 -820 l0 -255
-675 -3 c-371 -1 -685 0 -697 3 l-23 5 0 249 c0 190 3 251 13 254 6 3 320 5
697 4 l685 -2 0 -255z m30 -565 l0 -250 -710 0 -710 0 -3 240 c-1 132 0 245 3
252 3 11 146 13 712 11 l708 -3 0 -250z m0 -570 l0 -250 -730 0 -730 0 -3 46
c-2 35 2 49 18 64 19 17 20 29 20 200 0 100 3 185 7 188 3 4 324 6 712 5 l706
-3 0 -250z m-1517 -162 c15 -21 17 -305 2 -334 -11 -19 -49 -19 -2525 -19
-2476 0 -2514 0 -2525 19 -5 11 -10 85 -10 168 0 156 5 178 44 185 11 1 1140
2 2510 1 2330 -3 2492 -4 2504 -20z m1510 -158 c10 -3 12 -59 10 -252 l-3
-248 -1605 0 -1605 0 -3 121 c-2 94 1 124 11 133 10 8 76 11 228 9 l213 -3 6
-25 6 -25 329 0 330 0 3 23 c2 12 4 23 5 24 1 1 139 5 307 8 l305 5 3 110 c1
61 4 115 6 120 3 10 1426 10 1454 0z m-3841 -251 c3 -9 2 -22 -3 -29 -5 -6
-30 -41 -56 -76 -192 -260 -172 -239 -221 -239 -23 0 -47 4 -52 8 -11 8 -42
49 -96 127 -20 28 -56 80 -82 117 -46 66 -54 87 -40 101 3 4 127 7 275 7 239
0 269 -2 275 -16z m1545 -401 c15 -14 18 -32 18 -119 0 -92 -2 -104 -19 -114
-24 -13 -3539 -14 -3560 -1 -21 14 -16 222 6 239 13 9 384 12 1777 12 1623 0
1761 -1 1778 -17z"/>
<path d="M5212 4958 l3 -43 328 -3 327 -2 0 45 0 45 -331 0 -330 0 3 -42z"/>
<path d="M7044 4897 c-3 -8 -4 -47 -2 -88 l3 -74 120 0 120 0 0 85 0 85 -118
3 c-92 2 -119 0 -123 -11z"/>
<path d="M7524 4897 c-3 -8 -4 -47 -2 -88 l3 -74 105 -3 c154 -4 150 -6 150
81 0 43 -5 78 -12 85 -18 18 -237 17 -244 -1z"/>
<path d="M5144 4446 c-3 -8 -4 -27 -2 -43 l3 -28 305 -3 c168 -1 315 0 328 3
20 5 23 11 20 43 l-3 37 -323 3 c-272 2 -323 0 -328 -12z"/>
<path d="M7001 4361 c-20 -13 -28 -135 -11 -156 16 -19 234 -22 246 -3 11 18
4 152 -9 160 -17 11 -209 9 -226 -1z"/>
<path d="M7482 4358 c-7 -7 -12 -41 -12 -85 0 -87 -4 -85 150 -81 l105 3 0 85
0 85 -115 3 c-81 2 -119 -1 -128 -10z"/>
<path d="M7074 3817 c-3 -8 -4 -47 -2 -88 l3 -74 114 -3 c85 -2 117 1 123 10
11 19 10 126 -2 149 -10 17 -22 19 -121 19 -82 0 -111 -3 -115 -13z"/>
<path d="M7554 3817 c-3 -8 -4 -47 -2 -88 l3 -74 120 0 120 0 3 67 c5 106 2
108 -129 108 -82 0 -111 -3 -115 -13z"/>
<path d="M7044 3247 c-3 -8 -4 -47 -2 -88 l3 -74 120 0 120 0 0 85 0 85 -118
3 c-92 2 -119 0 -123 -11z"/>
<path d="M7524 3247 c-3 -8 -4 -47 -2 -88 l3 -74 114 -3 c75 -2 118 1 127 9
18 15 19 140 2 157 -18 18 -237 17 -244 -1z"/>
<path d="M6992 2678 c-13 -13 -16 -97 -6 -135 6 -22 10 -23 129 -23 l123 0 4
76 c2 41 -1 79 -6 85 -15 14 -229 12 -244 -3z"/>
<path d="M7483 2684 c-14 -6 -18 -130 -5 -151 6 -9 166 -19 240 -14 10 1 12
22 10 84 l-3 82 -115 2 c-63 1 -121 -1 -127 -3z"/>
<path d="M7072 2038 l3 -83 110 -3 c128 -3 135 1 135 84 0 86 4 84 -131 84
l-120 0 3 -82z"/>
<path d="M7554 2107 c-3 -8 -4 -45 -2 -83 l3 -69 112 -3 c132 -3 136 0 131
101 l-3 62 -118 3 c-93 2 -119 0 -123 -11z"/>
<path d="M7072 1473 l3 -78 109 -3 c73 -2 113 1 122 9 11 9 14 30 12 78 l-3
66 -123 3 -123 3 3 -78z"/>
<path d="M7552 1473 l3 -78 109 -3 c73 -2 113 1 122 9 11 9 14 30 12 78 l-3
66 -123 3 -123 3 3 -78z"/>
<path d="M7072 933 l3 -78 109 -3 c73 -2 113 1 122 9 11 9 14 30 12 78 l-3 66
-123 3 -123 3 3 -78z"/>
<path d="M7552 933 l3 -78 117 -3 c135 -3 132 -5 126 99 l-3 54 -123 3 -123 3
3 -78z"/>
</g>
</svg>
